<svg viewBox="0 0 100 105" fill="none" xmlns="http://www.w3.org/2000/svg">
  <defs>
    <linearGradient id="wl-teal-grad" x1="10" y1="5" x2="90" y2="100" gradientUnits="userSpaceOnUse">
      <stop offset="0%" stop-color="#0d9488" />
      <stop offset="100%" stop-color="#14b8a6" />
    </linearGradient>
    <linearGradient id="wl-teal-accent" x1="50" y1="25" x2="50" y2="82" gradientUnits="userSpaceOnUse">
      <stop offset="0%" stop-color="#2dd4bf" />
      <stop offset="100%" stop-color="#0f766e" />
    </linearGradient>
    <clipPath id="wl-pin-inner">
      <path d="M 50 13 C 31 13, 16 28, 16 47 C 16 66, 35 83, 50 94 C 65 83, 84 66, 84 47 C 84 28, 69 13, 50 13 Z" />
    </clipPath>
  </defs>
  <g>
    <path d="M 50 5 C 27 5, 8 24, 8 47 C 8 70, 31 89, 50 102 C 69 89, 92 70, 92 47 C 92 24, 73 5, 50 5 Z" fill="url(#wl-teal-grad)" />
    <path d="M 50 13 C 31 13, 16 28, 16 47 C 16 66, 35 83, 50 94 C 65 83, 84 66, 84 47 C 84 28, 69 13, 50 13 Z" fill="#FFFFFF" />
    <g clip-path="url(#wl-pin-inner)">
      <rect x="23" y="52" width="16" height="30" rx="1" fill="#1e293b" />
      <rect x="26" y="56" width="3" height="3" rx="0.5" fill="#ffffff" />
      <rect x="33" y="56" width="3" height="3" rx="0.5" fill="#ffffff" />
      <rect x="26" y="62" width="3" height="3" rx="0.5" fill="#ffffff" />
      <rect x="33" y="62" width="3" height="3" rx="0.5" fill="#ffffff" />
      <rect x="26" y="68" width="3" height="3" rx="0.5" fill="#ffffff" />
      <rect x="33" y="68" width="3" height="3" rx="0.5" fill="#ffffff" />
      <rect x="61" y="54" width="16" height="28" rx="1" fill="#1e293b" />
      <rect x="64" y="58" width="3" height="3" rx="0.5" fill="#ffffff" />
      <rect x="71" y="58" width="3" height="3" rx="0.5" fill="#ffffff" />
      <rect x="64" y="64" width="3" height="3" rx="0.5" fill="#ffffff" />
      <rect x="71" y="64" width="3" height="3" rx="0.5" fill="#ffffff" />
      <rect x="64" y="70" width="3" height="3" rx="0.5" fill="#ffffff" />
      <rect x="71" y="70" width="3" height="3" rx="0.5" fill="#ffffff" />
      <path d="M 49 26 L 51 26 L 51 34 L 54 38 L 54 82 L 46 82 L 46 38 L 49 34 Z" fill="url(#wl-teal-accent)" />
      <line x1="50" y1="42" x2="50" y2="78" stroke="#ffffff" stroke-width="1.5" stroke-dasharray="3 2" />
    </g>
    <g stroke="#0d9488" stroke-width="2" stroke-linecap="round" fill="none">
      <path d="M 20 69 Q 34 83, 50 83 Q 66 83, 80 69" />
      <path d="M 28 75 Q 50 87, 72 75" stroke="#14b8a6" stroke-width="1.5" />
    </g>
    <circle cx="20" cy="69" r="3" fill="#ffffff" stroke="#0d9488" stroke-width="2" />
    <circle cx="34" cy="79" r="3" fill="#ffffff" stroke="#0d9488" stroke-width="2" />
    <circle cx="66" cy="79" r="3" fill="#ffffff" stroke="#0d9488" stroke-width="2" />
    <circle cx="80" cy="69" r="3" fill="#ffffff" stroke="#0d9488" stroke-width="2" />
    <g transform="translate(62, 22)">
      <path d="M 12 0 C 18.6 0, 24 5.4, 24 12 C 24 18.6, 18.6 24, 12 24 C 9.5 24, 7.2 23.2, 5.3 21.9 L 0 24 L 2.1 19.1 C 0.8 17.1, 0 14.6, 0 12 C 0 5.4, 5.4 0, 12 0 Z" fill="#1e293b" />
      <path d="M 7.5 12 L 10.5 15 L 16.5 8.5" stroke="#ffffff" stroke-width="2.2" stroke-linecap="round" stroke-linejoin="round" fill="none" />
    </g>
  </g>
</svg>